<svg id="Layer_1" data-name="Layer 1" xmlns="http://www.w3.org/2000/svg" xmlns:xlink="http://www.w3.org/1999/xlink" viewBox="0 0 1247.31 1031"><defs><style>.cls-1{fill:none;}.cls-2{clip-path:url(#clip-path);}.cls-3{fill:#00b2ff;}.cls-4{fill:#33a045;}.cls-5{fill:#006837;}</style><clipPath id="clip-path" transform="translate(99.86 11)"><circle class="cls-1" cx="500" cy="500" r="500"/></clipPath></defs><g class="cls-2"><rect class="cls-3" x="85.36" y="0.5" width="1038" height="1030"/><path d="M1023-10V1019H-14V-10H1023m1-1H-15V1020H1024V-11Z" transform="translate(99.86 11)"/><path class="cls-4" d="M-67.32,1010.5a31.82,31.82,0,0,1-27.09-15,31.83,31.83,0,0,1-1.75-30.9L191.46,366.17a32,32,0,0,1,57.68,0L536.77,964.64a32,32,0,0,1-28.85,45.86Z" transform="translate(99.86 11)"/><path d="M220.3,348.53a31.25,31.25,0,0,1,28.39,17.85L536.32,964.86a31.5,31.5,0,0,1-28.4,45.14H-67.32A31.34,31.34,0,0,1-94,995.27a31.32,31.32,0,0,1-1.72-30.41L191.91,366.38a31.25,31.25,0,0,1,28.39-17.85m0-1A32.11,32.11,0,0,0,191,366L-96.61,964.42A32.5,32.5,0,0,0-67.32,1011H507.92a32.5,32.5,0,0,0,29.3-46.58L249.59,366a32.09,32.09,0,0,0-29.29-18.42Z" transform="translate(99.86 11)"/><path class="cls-5" d="M252.37,1009.5a32,32,0,0,1-28-47.48L655.63,181.85a32,32,0,0,1,56,0L1142.91,962a32,32,0,0,1-28,47.48Z" transform="translate(99.86 11)"/><path d="M683.63,165.83a31.1,31.1,0,0,1,27.57,16.26l431.27,780.17A31.51,31.51,0,0,1,1114.9,1009H252.37a31.51,31.51,0,0,1-27.57-46.74L656.07,182.09a31.09,31.09,0,0,1,27.56-16.26m0-1a32.16,32.16,0,0,0-28.44,16.78L223.92,961.78A32.5,32.5,0,0,0,252.37,1010H1114.9a32.49,32.49,0,0,0,28.44-48.22L712.08,181.61a32.19,32.19,0,0,0-28.45-16.78Z" transform="translate(99.86 11)"/></g></svg>